<svg width="87" height="23" viewBox="0 0 87 23" fill="none" xmlns="http://www.w3.org/2000/svg">
<path d="M12.94 6.6C12.7933 7.42667 12.4533 8.11333 11.92 8.66C11.3867 9.20667 10.7467 9.58667 10 9.8C10.6667 9.94667 11.1933 10.2733 11.58 10.78C11.9667 11.2867 12.16 11.88 12.16 12.56C12.16 12.7733 12.14 12.98 12.1 13.18C11.9 14.3533 11.3267 15.2867 10.38 15.98C9.43333 16.66 8.22667 17 6.76 17H0.22L2.7 2.96H9.02C10.2867 2.96 11.2667 3.22 11.96 3.74C12.6533 4.26 13 4.98 13 5.9C13 6.12667 12.98 6.36 12.94 6.6ZM7.34 8.66C7.91333 8.66 8.37333 8.53333 8.72 8.28C9.06667 8.02667 9.28 7.66 9.36 7.18C9.37333 7.1 9.38 6.99333 9.38 6.86C9.38 6.47333 9.25333 6.18 9 5.98C8.74667 5.76667 8.37333 5.66 7.88 5.66H5.64L5.12 8.66H7.34ZM8.7 12.72C8.72667 12.56 8.74 12.44 8.74 12.36C8.74 11.9733 8.6 11.6733 8.32 11.46C8.04 11.2333 7.65333 11.12 7.16 11.12H4.68L4.12 14.28H6.64C7.22667 14.28 7.69333 14.1467 8.04 13.88C8.38667 13.6133 8.60667 13.2267 8.7 12.72ZM17.3036 4.68C16.7703 4.68 16.3436 4.54 16.0236 4.26C15.7169 3.96667 15.5636 3.6 15.5636 3.16C15.5636 2.56 15.7969 2.04667 16.2636 1.62C16.7303 1.19333 17.2969 0.979999 17.9636 0.979999C18.4969 0.979999 18.9169 1.12667 19.2236 1.42C19.5303 1.7 19.6836 2.06667 19.6836 2.52C19.6836 3.10667 19.4503 3.61333 18.9836 4.04C18.5169 4.46667 17.9569 4.68 17.3036 4.68ZM18.7836 5.84L16.8236 17H13.4036L15.3636 5.84H18.7836ZM25.542 5.68C26.3287 5.68 26.9954 5.84 27.542 6.16C28.0887 6.48 28.4687 6.9 28.682 7.42L28.962 5.84H32.382L30.422 16.98C30.2354 18.0067 29.862 18.9333 29.302 19.76C28.7554 20.6 28.0154 21.2667 27.082 21.76C26.162 22.2533 25.0887 22.5 23.862 22.5C22.2087 22.5 20.9354 22.1067 20.042 21.32C19.1487 20.5467 18.7487 19.4933 18.842 18.16H22.222C22.262 18.5867 22.4554 18.92 22.802 19.16C23.162 19.4133 23.6354 19.54 24.222 19.54C24.9287 19.54 25.5287 19.3333 26.022 18.92C26.5154 18.52 26.842 17.8733 27.002 16.98L27.282 15.4C26.8554 15.92 26.3154 16.3467 25.662 16.68C25.022 17 24.3087 17.16 23.522 17.16C22.7354 17.16 22.0354 16.98 21.422 16.62C20.822 16.26 20.3487 15.7467 20.002 15.08C19.6687 14.4133 19.502 13.6333 19.502 12.74C19.502 12.3267 19.542 11.88 19.622 11.4C19.822 10.2533 20.2154 9.24667 20.802 8.38C21.3887 7.51333 22.0954 6.84667 22.922 6.38C23.7487 5.91333 24.622 5.68 25.542 5.68ZM27.982 11.42C28.022 11.18 28.042 10.96 28.042 10.76C28.042 10.1067 27.8487 9.59333 27.462 9.22C27.0887 8.84667 26.6087 8.66 26.022 8.66C25.342 8.66 24.722 8.90667 24.162 9.4C23.602 9.88 23.2487 10.5467 23.102 11.4C23.062 11.64 23.042 11.86 23.042 12.06C23.042 12.7133 23.2287 13.2333 23.602 13.62C23.9887 13.9933 24.4687 14.18 25.042 14.18C25.722 14.18 26.342 13.9333 26.902 13.44C27.462 12.9467 27.822 12.2733 27.982 11.42ZM45.5963 6.6C45.4496 7.42667 45.1096 8.11333 44.5763 8.66C44.0429 9.20667 43.4029 9.58667 42.6562 9.8C43.3229 9.94667 43.8496 10.2733 44.2363 10.78C44.6229 11.2867 44.8163 11.88 44.8163 12.56C44.8163 12.7733 44.7963 12.98 44.7563 13.18C44.5563 14.3533 43.9829 15.2867 43.0363 15.98C42.0896 16.66 40.8829 17 39.4163 17H32.8763L35.3563 2.96H41.6763C42.9429 2.96 43.9229 3.22 44.6163 3.74C45.3096 4.26 45.6563 4.98 45.6563 5.9C45.6563 6.12667 45.6363 6.36 45.5963 6.6ZM39.9963 8.66C40.5696 8.66 41.0296 8.53333 41.3763 8.28C41.7229 8.02667 41.9363 7.66 42.0163 7.18C42.0296 7.1 42.0363 6.99333 42.0363 6.86C42.0363 6.47333 41.9096 6.18 41.6563 5.98C41.4029 5.76667 41.0296 5.66 40.5363 5.66H38.2963L37.7763 8.66H39.9963ZM41.3563 12.72C41.3829 12.56 41.3963 12.44 41.3963 12.36C41.3963 11.9733 41.2563 11.6733 40.9763 11.46C40.6963 11.2333 40.3096 11.12 39.8163 11.12H37.3363L36.7763 14.28H39.2963C39.8829 14.28 40.3496 14.1467 40.6963 13.88C41.0429 13.6133 41.2629 13.2267 41.3563 12.72ZM46.3798 11.4C46.5798 10.2533 46.9732 9.24667 47.5598 8.38C48.1465 7.51333 48.8532 6.84667 49.6798 6.38C50.5065 5.91333 51.3798 5.68 52.2998 5.68C53.0865 5.68 53.7465 5.84 54.2798 6.16C54.8132 6.48 55.1998 6.9 55.4398 7.42L55.7198 5.84H59.1398L57.1598 17H53.7398L54.0398 15.42C53.6132 15.94 53.0732 16.36 52.4198 16.68C51.7665 17 51.0465 17.16 50.2598 17.16C49.4732 17.16 48.7732 16.98 48.1598 16.62C47.5598 16.26 47.0932 15.7533 46.7598 15.1C46.4265 14.4333 46.2598 13.6533 46.2598 12.76C46.2598 12.3333 46.2998 11.88 46.3798 11.4ZM54.7398 11.42C54.7798 11.18 54.7998 10.96 54.7998 10.76C54.7998 10.1067 54.6065 9.59333 54.2198 9.22C53.8465 8.84667 53.3665 8.66 52.7798 8.66C52.0998 8.66 51.4798 8.90667 50.9198 9.4C50.3598 9.88 50.0065 10.5467 49.8598 11.4C49.8198 11.64 49.7998 11.86 49.7998 12.06C49.7998 12.7133 49.9865 13.2333 50.3598 13.62C50.7465 13.9933 51.2265 14.18 51.7998 14.18C52.4798 14.18 53.0998 13.9333 53.6598 13.44C54.2198 12.9467 54.5798 12.2733 54.7398 11.42ZM68.4141 5.72C69.5341 5.72 70.4141 6.03333 71.0541 6.66C71.6941 7.28667 72.0141 8.16 72.0141 9.28C72.0141 9.65333 71.9741 10.0533 71.8941 10.48L70.7341 17H67.3341L68.4141 10.94C68.4541 10.7133 68.4741 10.5133 68.4741 10.34C68.4741 9.78 68.3141 9.34667 67.9941 9.04C67.6874 8.73333 67.2541 8.58 66.6941 8.58C66.0274 8.58 65.4674 8.78667 65.0141 9.2C64.5607 9.61333 64.2674 10.1933 64.1341 10.94V10.84L63.0541 17H59.6341L61.5941 5.84H65.0141L64.7541 7.34C65.1941 6.84667 65.7274 6.45333 66.3541 6.16C66.9941 5.86667 67.6807 5.72 68.4141 5.72ZM79.3506 5.68C80.1373 5.68 80.804 5.84 81.3506 6.16C81.8973 6.48 82.2773 6.9 82.4906 7.42L82.7706 5.84H86.1906L84.2306 16.98C84.044 18.0067 83.6706 18.9333 83.1106 19.76C82.564 20.6 81.824 21.2667 80.8906 21.76C79.9706 22.2533 78.8973 22.5 77.6706 22.5C76.0173 22.5 74.744 22.1067 73.8506 21.32C72.9573 20.5467 72.5573 19.4933 72.6506 18.16H76.0306C76.0706 18.5867 76.264 18.92 76.6106 19.16C76.9706 19.4133 77.444 19.54 78.0306 19.54C78.7373 19.54 79.3373 19.3333 79.8306 18.92C80.324 18.52 80.6506 17.8733 80.8106 16.98L81.0906 15.4C80.664 15.92 80.124 16.3467 79.4706 16.68C78.8306 17 78.1173 17.16 77.3306 17.16C76.544 17.16 75.844 16.98 75.2306 16.62C74.6306 16.26 74.1573 15.7467 73.8106 15.08C73.4773 14.4133 73.3106 13.6333 73.3106 12.74C73.3106 12.3267 73.3506 11.88 73.4306 11.4C73.6306 10.2533 74.024 9.24667 74.6106 8.38C75.1973 7.51333 75.904 6.84667 76.7306 6.38C77.5573 5.91333 78.4306 5.68 79.3506 5.68ZM81.7906 11.42C81.8306 11.18 81.8506 10.96 81.8506 10.76C81.8506 10.1067 81.6573 9.59333 81.2706 9.22C80.8973 8.84667 80.4173 8.66 79.8306 8.66C79.1506 8.66 78.5306 8.90667 77.9706 9.4C77.4106 9.88 77.0573 10.5467 76.9106 11.4C76.8706 11.64 76.8506 11.86 76.8506 12.06C76.8506 12.7133 77.0373 13.2333 77.4106 13.62C77.7973 13.9933 78.2773 14.18 78.8506 14.18C79.5306 14.18 80.1506 13.9333 80.7106 13.44C81.2706 12.9467 81.6306 12.2733 81.7906 11.42Z" fill="url(#paint0_linear_103_5)"/>
<defs>
<linearGradient id="paint0_linear_103_5" x1="87" y1="9.99999" x2="0" y2="9.99999" gradientUnits="userSpaceOnUse">
<stop stop-color="#FF9999"/>
<stop offset="1" stop-color="#FF3030"/>
</linearGradient>
</defs>
</svg>
